<?xml version="1.0" standalone="no"?>
<!DOCTYPE svg PUBLIC "-//W3C//DTD SVG 20010904//EN"
 "http://www.w3.org/TR/2001/REC-SVG-20010904/DTD/svg10.dtd">
<svg version="1.0" xmlns="http://www.w3.org/2000/svg"
 width="512.000000pt" height="512.000000pt" viewBox="0 0 512.000000 512.000000"
 preserveAspectRatio="xMidYMid meet">

<g transform="translate(0.000000,512.000000) scale(0.100000,-0.100000)"
fill="#000000" stroke="none">
<path d="M2335 5109 c-480 -45 -937 -221 -1323 -511 -120 -91 -339 -302 -436
-422 -415 -510 -623 -1183 -566 -1826 47 -522 242 -1008 566 -1406 97 -120
316 -331 436 -422 507 -381 1144 -566 1758 -512 517 46 1002 240 1395 557 129
104 340 321 433 445 296 395 468 844 512 1338 49 556 -104 1155 -417 1622
-198 297 -474 567 -770 754 -462 292 -1048 433 -1588 383z m-777 -1094 c49
-22 122 -91 530 -498 l472 -472 473 472 c538 538 525 527 672 527 65 0 90 -4
136 -26 79 -36 133 -89 171 -166 29 -59 33 -76 33 -147 -1 -148 10 -134 -528
-672 l-472 -473 472 -472 c538 -539 527 -526 527 -673 0 -65 -4 -90 -26 -136
-36 -79 -89 -133 -166 -171 -59 -29 -76 -33 -147 -33 -148 1 -134 -10 -672
528 l-473 472 -472 -472 c-539 -538 -525 -527 -673 -528 -71 0 -88 4 -147 33
-77 38 -130 92 -166 171 -22 46 -26 71 -26 136 0 147 -11 134 527 673 l472
472 -472 473 c-538 538 -527 525 -527 672 0 65 4 90 25 135 84 180 281 255
457 175z"/>
</g>
</svg>
